<svg version="1.1" xmlns="http://www.w3.org/2000/svg" xmlns:xlink="http://www.w3.org/1999/xlink" width="932" height="484"><defs/><g><g transform="translate(-406,-70) scale(1,1)"><rect fill="#f7eda7" stroke="none" x="416" y="264" width="200" height="280"/></g><g transform="translate(-406,-70) scale(1,1)"><path fill="none" stroke="#000000" d="M 416 264 L 616 264 L 616 544 L 416 544 L 416 264 Z Z" stroke-miterlimit="10"/></g><g transform="translate(-406,-70) scale(1,1)"><rect fill="#f7eda7" stroke="none" x="416" y="80" width="200" height="120"/></g><g transform="translate(-406,-70) scale(1,1)"><path fill="none" stroke="#000000" d="M 416 80 L 616 80 L 616 200 L 416 200 L 416 80 Z Z" stroke-miterlimit="10"/></g><g transform="translate(-406,-70) scale(1,1)"><rect fill="#b2d9a0" stroke="none" x="752" y="80" width="216" height="120"/></g><g transform="translate(-406,-70) scale(1,1)"><path fill="none" stroke="#000000" d="M 752 80 L 968 80 L 968 200 L 752 200 L 752 80 Z Z" stroke-miterlimit="10"/></g><g transform="translate(-406,-70) scale(1,1)"><rect fill="#C0C0C0" stroke="none" x="793" y="136" width="145.5595703125" height="44" opacity="0.2"/></g><g transform="translate(-406,-70) scale(1,1)"><rect fill="#ffffff" stroke="none" x="786" y="129" width="145.5595703125" height="44"/></g><g transform="translate(-406,-70) scale(1,1)"><path fill="none" stroke="#000000" d="M 786 129 L 931.5595703125 129 L 931.5595703125 173 L 786 173 L 786 129 Z Z" stroke-miterlimit="10"/></g><g transform="translate(-406,-70) scale(1,1)"><rect fill="#ffffff" stroke="none" x="776" y="136" width="20" height="10"/></g><g transform="translate(-406,-70) scale(1,1)"><path fill="none" stroke="#000000" d="M 776 136 L 796 136 L 796 146 L 776 146 L 776 136 Z Z" stroke-miterlimit="10"/></g><g transform="translate(-406,-70) scale(1,1)"><rect fill="#ffffff" stroke="none" x="776" y="156" width="20" height="10"/></g><g transform="translate(-406,-70) scale(1,1)"><path fill="none" stroke="#000000" d="M 776 156 L 796 156 L 796 166 L 776 166 L 776 156 Z Z" stroke-miterlimit="10"/></g><g transform="translate(-406,-70) scale(1,1)"><g><path fill="none" stroke="none"/><text fill="#000000" stroke="none" font-family="Arial" font-size="13px" font-style="normal" font-weight="bold" text-decoration="none" x="809.77978515625" y="148.5">LocationAdvertiser</text></g></g><g transform="translate(-406,-70) scale(1,1)"><rect fill="#C0C0C0" stroke="none" x="462" y="136" width="132.35009765625" height="44" opacity="0.2"/></g><g transform="translate(-406,-70) scale(1,1)"><rect fill="#ffffff" stroke="none" x="455" y="129" width="132.35009765625" height="44"/></g><g transform="translate(-406,-70) scale(1,1)"><path fill="none" stroke="#000000" d="M 455 129 L 587.35009765625 129 L 587.35009765625 173 L 455 173 L 455 129 Z Z" stroke-miterlimit="10"/></g><g transform="translate(-406,-70) scale(1,1)"><rect fill="#ffffff" stroke="none" x="445" y="136" width="20" height="10"/></g><g transform="translate(-406,-70) scale(1,1)"><path fill="none" stroke="#000000" d="M 445 136 L 465 136 L 465 146 L 445 146 L 445 136 Z Z" stroke-miterlimit="10"/></g><g transform="translate(-406,-70) scale(1,1)"><rect fill="#ffffff" stroke="none" x="445" y="156" width="20" height="10"/></g><g transform="translate(-406,-70) scale(1,1)"><path fill="none" stroke="#000000" d="M 445 156 L 465 156 L 465 166 L 445 166 L 445 156 Z Z" stroke-miterlimit="10"/></g><g transform="translate(-406,-70) scale(1,1)"><g><path fill="none" stroke="none"/><text fill="#000000" stroke="none" font-family="Arial" font-size="13px" font-style="normal" font-weight="bold" text-decoration="none" x="476.175048828125" y="148.5">LocationReceiver</text></g></g><g transform="translate(-406,-70) scale(1,1)"><path fill="#C0C0C0" stroke="none" d="M 681.5 145.5 C 681.5 139.1487248 686.6487248 134 693 134 C 699.3512752 134 704.5 139.1487248 704.5 145.5 C 704.5 151.8512752 699.3512752 157 693 157 C 686.6487248 157 681.5 151.8512752 681.5 145.5 Z" opacity="0.2"/></g><g transform="translate(-406,-70) scale(1,1)"><path fill="none" stroke="#000000" d="M 686 149.5 A 11.5 11.5 0 0 1 686 126.5" stroke-miterlimit="10"/></g><g transform="translate(-406,-70) scale(1,1)"><path fill="#ffffff" stroke="none" d="M 677.5 138.5 C 677.5 133.8055792 681.3055792 130 686 130 C 690.6944208 130 694.5 133.8055792 694.5 138.5 C 694.5 143.1944208 690.6944208 147 686 147 C 681.3055792 147 677.5 143.1944208 677.5 138.5 Z"/></g><g transform="translate(-406,-70) scale(1,1)"><path fill="none" stroke="#000000" d="M 677.5 138.5 C 677.5 133.8055792 681.3055792 130 686 130 C 690.6944208 130 694.5 133.8055792 694.5 138.5 C 694.5 143.1944208 690.6944208 147 686 147 C 681.3055792 147 677.5 143.1944208 677.5 138.5 Z" stroke-miterlimit="10"/></g><g transform="translate(-406,-70) scale(1,1)"><g><path fill="none" stroke="none"/><text fill="#000000" stroke="none" font-family="Arial" font-size="13px" font-style="normal" font-weight="bold" text-decoration="none" x="648" y="169.5">LocationData</text></g></g><g transform="translate(-406,-70) scale(1,1)"><path fill="none" stroke="#000000" d="M 776 138 L 697.5 138" stroke-miterlimit="10"/></g><g transform="translate(-406,-70) scale(1,1)"><path fill="none" stroke="#000000" d="M 587 138 L 674.5 138" stroke-miterlimit="10"/></g><g transform="translate(-406,-70) scale(1,1)"><g><path fill="none" stroke="none"/><text fill="#000000" stroke="none" font-family="Arial" font-size="13px" font-style="normal" font-weight="normal" text-decoration="none" x="757" y="98">Android</text><text fill="#000000" stroke="none" font-family="Arial" font-size="13px" font-style="normal" font-weight="normal" text-decoration="none" x="757" y="111">Application</text></g></g><g transform="translate(-406,-70) scale(1,1)"><rect fill="#C0C0C0" stroke="none" x="473" y="297" width="110.939453125" height="72" opacity="0.2"/></g><g transform="translate(-406,-70) scale(1,1)"><rect fill="#ffffff" stroke="none" x="466" y="290" width="110.939453125" height="72"/></g><g transform="translate(-406,-70) scale(1,1)"><path fill="none" stroke="#000000" d="M 466 290 L 576.939453125 290 L 576.939453125 362 L 466 362 L 466 290 Z Z" stroke-miterlimit="10"/></g><g transform="translate(-406,-70) scale(1,1)"><rect fill="#ffffff" stroke="none" x="456" y="297" width="20" height="10"/></g><g transform="translate(-406,-70) scale(1,1)"><path fill="none" stroke="#000000" d="M 456 297 L 476 297 L 476 307 L 456 307 L 456 297 Z Z" stroke-miterlimit="10"/></g><g transform="translate(-406,-70) scale(1,1)"><rect fill="#ffffff" stroke="none" x="456" y="317" width="20" height="10"/></g><g transform="translate(-406,-70) scale(1,1)"><path fill="none" stroke="#000000" d="M 456 317 L 476 317 L 476 327 L 456 327 L 456 317 Z Z" stroke-miterlimit="10"/></g><g transform="translate(-406,-70) scale(1,1)"><g><path fill="none" stroke="none"/><text fill="#000000" stroke="none" font-family="Arial" font-size="13px" font-style="normal" font-weight="bold" text-decoration="none" x="487.4697265625" y="309.5">DetailWindow</text></g></g><g transform="translate(-406,-70) scale(1,1)"><path fill="#C0C0C0" stroke="none" d="M 512.105224609375 226.5 C 512.105224609375 220.1487248 517.253949409375 215 523.605224609375 215 C 529.956499809375 215 535.105224609375 220.1487248 535.105224609375 226.5 C 535.105224609375 232.8512752 529.956499809375 238 523.605224609375 238 C 517.253949409375 238 512.105224609375 232.8512752 512.105224609375 226.5 Z" opacity="0.2"/></g><g transform="translate(-406,-70) scale(1,1)"><path fill="none" stroke="#000000" d="M 527.5 219 A 11.5 11.5 0 0 1 504.5 219" stroke-miterlimit="10"/></g><g transform="translate(-406,-70) scale(1,1)"><path fill="#ffffff" stroke="none" d="M 508.105224609375 219.5 C 508.105224609375 214.8055792 511.910803809375 211 516.605224609375 211 C 521.299645409375 211 525.105224609375 214.8055792 525.105224609375 219.5 C 525.105224609375 224.1944208 521.299645409375 228 516.605224609375 228 C 511.910803809375 228 508.105224609375 224.1944208 508.105224609375 219.5 Z"/></g><g transform="translate(-406,-70) scale(1,1)"><path fill="none" stroke="#000000" d="M 508.105224609375 219.5 C 508.105224609375 214.8055792 511.910803809375 211 516.605224609375 211 C 521.299645409375 211 525.105224609375 214.8055792 525.105224609375 219.5 C 525.105224609375 224.1944208 521.299645409375 228 516.605224609375 228 C 511.910803809375 228 508.105224609375 224.1944208 508.105224609375 219.5 Z" stroke-miterlimit="10"/></g><g transform="translate(-406,-70) scale(1,1)"><g><path fill="none" stroke="none"/><text fill="#000000" stroke="none" font-family="Arial" font-size="13px" font-style="normal" font-weight="bold" text-decoration="none" x="473.105224609375" y="250.5">LocationObject</text></g></g><g transform="translate(-406,-70) scale(1,1)"><path fill="none" stroke="#000000" d="M 516 174 L 516 208" stroke-miterlimit="10"/></g><g transform="translate(-406,-70) scale(1,1)"><path fill="none" stroke="#000000" d="M 516 289 L 516 231" stroke-miterlimit="10"/></g><g transform="translate(-406,-70) scale(1,1)"><g><path fill="none" stroke="none"/><text fill="#000000" stroke="none" font-family="Arial" font-size="13px" font-style="normal" font-weight="normal" text-decoration="none" x="421" y="98">UWP</text><text fill="#000000" stroke="none" font-family="Arial" font-size="13px" font-style="normal" font-weight="normal" text-decoration="none" x="421" y="111">Plugin</text></g></g><g transform="translate(-406,-70) scale(1,1)"><g><path fill="none" stroke="none"/><text fill="#000000" stroke="none" font-family="Arial" font-size="13px" font-style="normal" font-weight="normal" text-decoration="none" x="421" y="282">Unity</text></g></g><g transform="translate(-406,-70) scale(1,1)"><rect fill="#62caff" stroke="none" x="752" y="256" width="576" height="288"/></g><g transform="translate(-406,-70) scale(1,1)"><path fill="none" stroke="#000000" d="M 752 256 L 1328 256 L 1328 544 L 752 544 L 752 256 Z Z" stroke-miterlimit="10"/></g><g transform="translate(-406,-70) scale(1,1)"><g><path fill="none" stroke="none"/><text fill="#000000" stroke="none" font-family="Arial" font-size="13px" font-style="normal" font-weight="normal" text-decoration="none" x="757" y="282">ASP.NET Application</text></g></g><g transform="translate(-406,-70) scale(1,1)"><rect fill="#C0C0C0" stroke="none" x="825" y="303" width="98" height="72" opacity="0.2"/></g><g transform="translate(-406,-70) scale(1,1)"><rect fill="#ffffff" stroke="none" x="818" y="296" width="98" height="72"/></g><g transform="translate(-406,-70) scale(1,1)"><path fill="none" stroke="#000000" d="M 818 296 L 916 296 L 916 368 L 818 368 L 818 296 Z Z" stroke-miterlimit="10"/></g><g transform="translate(-406,-70) scale(1,1)"><rect fill="#ffffff" stroke="none" x="808" y="303" width="20" height="10"/></g><g transform="translate(-406,-70) scale(1,1)"><path fill="none" stroke="#000000" d="M 808 303 L 828 303 L 828 313 L 808 313 L 808 303 Z Z" stroke-miterlimit="10"/></g><g transform="translate(-406,-70) scale(1,1)"><rect fill="#ffffff" stroke="none" x="808" y="323" width="20" height="10"/></g><g transform="translate(-406,-70) scale(1,1)"><path fill="none" stroke="#000000" d="M 808 323 L 828 323 L 828 333 L 808 333 L 808 323 Z Z" stroke-miterlimit="10"/></g><g transform="translate(-406,-70) scale(1,1)"><g><path fill="none" stroke="none"/><text fill="#000000" stroke="none" font-family="Arial" font-size="13px" font-style="normal" font-weight="bold" text-decoration="none" x="846" y="315.5">Web API</text></g></g><g transform="translate(-406,-70) scale(1,1)"><rect fill="#C0C0C0" stroke="none" x="1137" y="471" width="98" height="44" opacity="0.2"/></g><g transform="translate(-406,-70) scale(1,1)"><rect fill="#ffffff" stroke="none" x="1130" y="464" width="98" height="44"/></g><g transform="translate(-406,-70) scale(1,1)"><path fill="none" stroke="#000000" d="M 1130 464 L 1228 464 L 1228 508 L 1130 508 L 1130 464 Z Z" stroke-miterlimit="10"/></g><g transform="translate(-406,-70) scale(1,1)"><rect fill="#ffffff" stroke="none" x="1120" y="471" width="20" height="10"/></g><g transform="translate(-406,-70) scale(1,1)"><path fill="none" stroke="#000000" d="M 1120 471 L 1140 471 L 1140 481 L 1120 481 L 1120 471 Z Z" stroke-miterlimit="10"/></g><g transform="translate(-406,-70) scale(1,1)"><rect fill="#ffffff" stroke="none" x="1120" y="491" width="20" height="10"/></g><g transform="translate(-406,-70) scale(1,1)"><path fill="none" stroke="#000000" d="M 1120 491 L 1140 491 L 1140 501 L 1120 501 L 1120 491 Z Z" stroke-miterlimit="10"/></g><g transform="translate(-406,-70) scale(1,1)"><g><path fill="none" stroke="none"/><text fill="#000000" stroke="none" font-family="Arial" font-size="13px" font-style="normal" font-weight="bold" text-decoration="none" x="1156.5" y="483.5">Database</text></g></g><g transform="translate(-406,-70) scale(1,1)"><rect fill="#C0C0C0" stroke="none" x="1105" y="303" width="175.025390625" height="72" opacity="0.2"/></g><g transform="translate(-406,-70) scale(1,1)"><rect fill="#ffffff" stroke="none" x="1098" y="296" width="175.025390625" height="72"/></g><g transform="translate(-406,-70) scale(1,1)"><path fill="none" stroke="#000000" d="M 1098 296 L 1273.025390625 296 L 1273.025390625 368 L 1098 368 L 1098 296 Z Z" stroke-miterlimit="10"/></g><g transform="translate(-406,-70) scale(1,1)"><rect fill="#ffffff" stroke="none" x="1088" y="303" width="20" height="10"/></g><g transform="translate(-406,-70) scale(1,1)"><path fill="none" stroke="#000000" d="M 1088 303 L 1108 303 L 1108 313 L 1088 313 L 1088 303 Z Z" stroke-miterlimit="10"/></g><g transform="translate(-406,-70) scale(1,1)"><rect fill="#ffffff" stroke="none" x="1088" y="323" width="20" height="10"/></g><g transform="translate(-406,-70) scale(1,1)"><path fill="none" stroke="#000000" d="M 1088 323 L 1108 323 L 1108 333 L 1088 333 L 1088 323 Z Z" stroke-miterlimit="10"/></g><g transform="translate(-406,-70) scale(1,1)"><g><path fill="none" stroke="none"/><text fill="#000000" stroke="none" font-family="Arial" font-size="13px" font-style="normal" font-weight="bold" text-decoration="none" x="1125.5126953125" y="315.5">BillboardDetermination</text></g></g><g transform="translate(-406,-70) scale(1,1)"><path fill="#C0C0C0" stroke="none" d="M 686.544677734375 306.5 C 686.544677734375 300.1487248 691.693402534375 295 698.044677734375 295 C 704.395952934375 295 709.544677734375 300.1487248 709.544677734375 306.5 C 709.544677734375 312.8512752 704.395952934375 318 698.044677734375 318 C 691.693402534375 318 686.544677734375 312.8512752 686.544677734375 306.5 Z" opacity="0.2"/></g><g transform="translate(-406,-70) scale(1,1)"><path fill="none" stroke="#000000" d="M 691 287.5 A 11.5 11.5 0 0 1 691 310.5" stroke-miterlimit="10"/></g><g transform="translate(-406,-70) scale(1,1)"><path fill="#ffffff" stroke="none" d="M 682.544677734375 299.5 C 682.544677734375 294.8055792 686.350256934375 291 691.044677734375 291 C 695.739098534375 291 699.544677734375 294.8055792 699.544677734375 299.5 C 699.544677734375 304.1944208 695.739098534375 308 691.044677734375 308 C 686.350256934375 308 682.544677734375 304.1944208 682.544677734375 299.5 Z"/></g><g transform="translate(-406,-70) scale(1,1)"><path fill="none" stroke="#000000" d="M 682.544677734375 299.5 C 682.544677734375 294.8055792 686.350256934375 291 691.044677734375 291 C 695.739098534375 291 699.544677734375 294.8055792 699.544677734375 299.5 C 699.544677734375 304.1944208 695.739098534375 308 691.044677734375 308 C 686.350256934375 308 682.544677734375 304.1944208 682.544677734375 299.5 Z" stroke-miterlimit="10"/></g><g transform="translate(-406,-70) scale(1,1)"><g><path fill="none" stroke="none"/><text fill="#000000" stroke="none" font-family="Arial" font-size="13px" font-style="normal" font-weight="bold" text-decoration="none" x="631.544677734375" y="330.5">CollectedInformation</text></g></g><g transform="translate(-406,-70) scale(1,1)"><path fill="none" stroke="#000000" d="M 577 299 L 679.544677734375 299" stroke-miterlimit="10"/></g><g transform="translate(-406,-70) scale(1,1)"><path fill="none" stroke="#000000" d="M 808 299 L 702.544677734375 299" stroke-miterlimit="10"/></g><g transform="translate(-406,-70) scale(1,1)"><path fill="#C0C0C0" stroke="none" d="M 685.329833984375 362.5 C 685.329833984375 356.1487248 690.478558784375 351 696.829833984375 351 C 703.181109184375 351 708.329833984375 356.1487248 708.329833984375 362.5 C 708.329833984375 368.8512752 703.181109184375 374 696.829833984375 374 C 690.478558784375 374 685.329833984375 368.8512752 685.329833984375 362.5 Z" opacity="0.2"/></g><g transform="translate(-406,-70) scale(1,1)"><path fill="none" stroke="#000000" d="M 689 366.5 A 11.5 11.5 0 0 1 689 343.5" stroke-miterlimit="10"/></g><g transform="translate(-406,-70) scale(1,1)"><path fill="#ffffff" stroke="none" d="M 681.329833984375 355.5 C 681.329833984375 350.8055792 685.135413184375 347 689.829833984375 347 C 694.524254784375 347 698.329833984375 350.8055792 698.329833984375 355.5 C 698.329833984375 360.1944208 694.524254784375 364 689.829833984375 364 C 685.135413184375 364 681.329833984375 360.1944208 681.329833984375 355.5 Z"/></g><g transform="translate(-406,-70) scale(1,1)"><path fill="none" stroke="#000000" d="M 681.329833984375 355.5 C 681.329833984375 350.8055792 685.135413184375 347 689.829833984375 347 C 694.524254784375 347 698.329833984375 350.8055792 698.329833984375 355.5 C 698.329833984375 360.1944208 694.524254784375 364 689.829833984375 364 C 685.135413184375 364 681.329833984375 360.1944208 681.329833984375 355.5 Z" stroke-miterlimit="10"/></g><g transform="translate(-406,-70) scale(1,1)"><g><path fill="none" stroke="none"/><text fill="#000000" stroke="none" font-family="Arial" font-size="13px" font-style="normal" font-weight="bold" text-decoration="none" x="633.329833984375" y="386.5">BillboardViewModel</text></g></g><g transform="translate(-406,-70) scale(1,1)"><path fill="none" stroke="#000000" d="M 808 355 L 701.329833984375 355" stroke-miterlimit="10"/></g><g transform="translate(-406,-70) scale(1,1)"><path fill="none" stroke="#000000" d="M 577 355 L 678.329833984375 355" stroke-miterlimit="10"/></g><g transform="translate(-406,-70) scale(1,1)"><path fill="#C0C0C0" stroke="none" d="M 1014.544677734375 312.5 C 1014.544677734375 306.1487248 1019.693402534375 301 1026.044677734375 301 C 1032.395952934375 301 1037.544677734375 306.1487248 1037.544677734375 312.5 C 1037.544677734375 318.8512752 1032.395952934375 324 1026.044677734375 324 C 1019.693402534375 324 1014.544677734375 318.8512752 1014.544677734375 312.5 Z" opacity="0.2"/></g><g transform="translate(-406,-70) scale(1,1)"><path fill="none" stroke="#000000" d="M 1024.4346218076787 294.86516473703176 A 11.5 11.5 0 0 1 1013.5653781923214 315.13483526296824" stroke-miterlimit="10"/></g><g transform="translate(-406,-70) scale(1,1)"><path fill="#ffffff" stroke="none" d="M 1010.544677734375 305.5 C 1010.544677734375 300.8055792 1014.350256934375 297 1019.044677734375 297 C 1023.739098534375 297 1027.544677734375 300.8055792 1027.544677734375 305.5 C 1027.544677734375 310.1944208 1023.739098534375 314 1019.044677734375 314 C 1014.350256934375 314 1010.544677734375 310.1944208 1010.544677734375 305.5 Z"/></g><g transform="translate(-406,-70) scale(1,1)"><path fill="none" stroke="#000000" d="M 1010.544677734375 305.5 C 1010.544677734375 300.8055792 1014.350256934375 297 1019.044677734375 297 C 1023.739098534375 297 1027.544677734375 300.8055792 1027.544677734375 305.5 C 1027.544677734375 310.1944208 1023.739098534375 314 1019.044677734375 314 C 1014.350256934375 314 1010.544677734375 310.1944208 1010.544677734375 305.5 Z" stroke-miterlimit="10"/></g><g transform="translate(-406,-70) scale(1,1)"><g><path fill="none" stroke="none"/><text fill="#000000" stroke="none" font-family="Arial" font-size="13px" font-style="normal" font-weight="bold" text-decoration="none" x="959.544677734375" y="336.5">CollectedInformation</text></g></g><g transform="translate(-406,-70) scale(1,1)"><path fill="none" stroke="#000000" d="M 1088 311.190624292346 L 1030.544677734375 311.190624292346" stroke-miterlimit="10"/></g><g transform="translate(-406,-70) scale(1,1)"><path fill="none" stroke="#000000" d="M 916 305 L 1007.544677734375 305" stroke-miterlimit="10"/></g><g transform="translate(-406,-70) scale(1,1)"><path fill="#C0C0C0" stroke="none" d="M 1011.257568359375 362.5 C 1011.257568359375 356.1487248 1016.406293159375 351 1022.757568359375 351 C 1029.108843559375 351 1034.257568359375 356.1487248 1034.257568359375 362.5 C 1034.257568359375 368.8512752 1029.108843559375 374 1022.757568359375 374 C 1016.406293159375 374 1011.257568359375 368.8512752 1011.257568359375 362.5 Z" opacity="0.2"/></g><g transform="translate(-406,-70) scale(1,1)"><path fill="none" stroke="#000000" d="M 1015 366.5 A 11.5 11.5 0 0 1 1015 343.5" stroke-miterlimit="10"/></g><g transform="translate(-406,-70) scale(1,1)"><path fill="#ffffff" stroke="none" d="M 1007.257568359375 355.5 C 1007.257568359375 350.8055792 1011.063147559375 347 1015.757568359375 347 C 1020.451989159375 347 1024.257568359375 350.8055792 1024.257568359375 355.5 C 1024.257568359375 360.1944208 1020.451989159375 364 1015.757568359375 364 C 1011.063147559375 364 1007.257568359375 360.1944208 1007.257568359375 355.5 Z"/></g><g transform="translate(-406,-70) scale(1,1)"><path fill="none" stroke="#000000" d="M 1007.257568359375 355.5 C 1007.257568359375 350.8055792 1011.063147559375 347 1015.757568359375 347 C 1020.451989159375 347 1024.257568359375 350.8055792 1024.257568359375 355.5 C 1024.257568359375 360.1944208 1020.451989159375 364 1015.757568359375 364 C 1011.063147559375 364 1007.257568359375 360.1944208 1007.257568359375 355.5 Z" stroke-miterlimit="10"/></g><g transform="translate(-406,-70) scale(1,1)"><g><path fill="none" stroke="none"/><text fill="#000000" stroke="none" font-family="Arial" font-size="13px" font-style="normal" font-weight="bold" text-decoration="none" x="973.257568359375" y="386.5">BillboardModel</text></g></g><g transform="translate(-406,-70) scale(1,1)"><path fill="none" stroke="#000000" d="M 1088 355 L 1027.257568359375 355" stroke-miterlimit="10"/></g><g transform="translate(-406,-70) scale(1,1)"><path fill="none" stroke="#000000" d="M 916 355 L 1004.257568359375 355" stroke-miterlimit="10"/></g><g transform="translate(-406,-70) scale(1,1)"><path fill="#C0C0C0" stroke="none" d="M 1173.083251953125 417.5 C 1173.083251953125 411.1487248 1178.231976753125 406 1184.583251953125 406 C 1190.934527153125 406 1196.083251953125 411.1487248 1196.083251953125 417.5 C 1196.083251953125 423.8512752 1190.934527153125 429 1184.583251953125 429 C 1178.231976753125 429 1173.083251953125 423.8512752 1173.083251953125 417.5 Z" opacity="0.2"/></g><g transform="translate(-406,-70) scale(1,1)"><path fill="none" stroke="#000000" d="M 1165.539723780184 409.0449769816819 A 11.5 11.5 0 0 1 1188.460276219816 410.95502301831806" stroke-miterlimit="10"/></g><g transform="translate(-406,-70) scale(1,1)"><path fill="#ffffff" stroke="none" d="M 1169.083251953125 410.5 C 1169.083251953125 405.8055792 1172.888831153125 402 1177.583251953125 402 C 1182.277672753125 402 1186.083251953125 405.8055792 1186.083251953125 410.5 C 1186.083251953125 415.1944208 1182.277672753125 419 1177.583251953125 419 C 1172.888831153125 419 1169.083251953125 415.1944208 1169.083251953125 410.5 Z"/></g><g transform="translate(-406,-70) scale(1,1)"><path fill="none" stroke="#000000" d="M 1169.083251953125 410.5 C 1169.083251953125 405.8055792 1172.888831153125 402 1177.583251953125 402 C 1182.277672753125 402 1186.083251953125 405.8055792 1186.083251953125 410.5 C 1186.083251953125 415.1944208 1182.277672753125 419 1177.583251953125 419 C 1172.888831153125 419 1169.083251953125 415.1944208 1169.083251953125 410.5 Z" stroke-miterlimit="10"/></g><g transform="translate(-406,-70) scale(1,1)"><g><path fill="none" stroke="none"/><text fill="#000000" stroke="none" font-family="Arial" font-size="13px" font-style="normal" font-weight="bold" text-decoration="none" x="1135.583251953125" y="441.5">BillboardsData</text></g></g><g transform="translate(-406,-70) scale(1,1)"><path fill="none" stroke="#000000" d="M 1175 463 L 1176.6842105263158 422" stroke-miterlimit="10"/></g><g transform="translate(-406,-70) scale(1,1)"><path fill="none" stroke="#000000" d="M 1179 369 L 1177.9166666666667 399" stroke-miterlimit="10"/></g></g></svg>