<?xml version="1.0" encoding="UTF-8"?>
<svg width="236px" height="23px" viewBox="0 0 236 23" version="1.1" xmlns="http://www.w3.org/2000/svg" xmlns:xlink="http://www.w3.org/1999/xlink">
    <!-- Generator: Sketch 43.1 (39012) - http://www.bohemiancoding.com/sketch -->
    <title>Logo</title>
    <desc>Created with Sketch.</desc>
    <defs>
        <path d="M37.5225402,22.4772727 C41.7033366,22.4772727 44.0111362,19.9415227 44.0111362,16.5495455 C44.0111362,13.8491364 42.0712467,11.5109773 39.6965543,11.1487273 C41.7702293,10.7206136 43.5763333,8.87643182 43.5763333,6.11015909 C43.5763333,3.01456818 41.3019801,0.51175 37.2215229,0.51175 L26.2511132,0.51175 L26.2511132,22.4772727 L37.5225402,22.4772727 Z M36.41881,9.60093182 L30.1643386,9.60093182 L30.1643386,3.90372727 L36.41881,3.90372727 C38.4255922,3.90372727 39.5627688,5.12220455 39.5627688,6.76879545 C39.5627688,8.41538636 38.4255922,9.60093182 36.41881,9.60093182 Z M36.5860418,19.0852955 L30.1643386,19.0852955 L30.1643386,12.9929091 L36.5860418,12.9929091 C38.8269487,12.9929091 39.9975717,14.3760455 39.9975717,16.0226364 C39.9975717,17.9326818 38.7266096,19.0852955 36.5860418,19.0852955 Z M63.855452,22.4772727 L58.4036935,13.8491364 C61.0794032,13.4210227 63.6882201,11.3133864 63.6882201,7.3945 C63.6882201,3.34388636 60.8118322,0.51175 56.3969113,0.51175 L46.5971246,0.51175 L46.5971246,22.4772727 L50.51035,22.4772727 L50.51035,14.27725 L54.390129,14.27725 L59.3401919,22.4772727 L63.855452,22.4772727 Z M55.8617694,10.8852727 L50.51035,10.8852727 L50.51035,3.90372727 L55.8617694,3.90372727 C58.0692298,3.90372727 59.6746556,5.28686364 59.6746556,7.3945 C59.6746556,9.50213636 58.0692298,10.8852727 55.8617694,10.8852727 Z M66.2742086,22.4772727 L70.187434,22.4772727 L70.187434,0.51175 L66.2742086,0.51175 L66.2742086,22.4772727 Z M84.3124204,22.8724545 C88.8276805,22.8724545 91.5702829,20.5672273 93.2760478,17.9326818 L89.9314107,16.2531591 C88.8611268,18.0973409 86.7205591,19.4475455 84.3124204,19.4475455 C79.8974994,19.4475455 76.6197551,16.1214318 76.6197551,11.5109773 C76.6197551,6.90052273 79.8974994,3.57440909 84.3124204,3.57440909 C86.7205591,3.57440909 88.8611268,4.95754545 89.9314107,6.76879545 L93.2760478,5.08927273 C91.6037293,2.45472727 88.8276805,0.1495 84.3124204,0.1495 C77.7234853,0.1495 72.6061906,4.75995455 72.6061906,11.5109773 C72.6061906,18.262 77.7234853,22.8724545 84.3124204,22.8724545 Z M113.254149,22.4772727 L103.521255,10.8852727 L112.585222,0.51175 L107.735498,0.51175 L99.0059951,10.9840682 L99.0059951,0.51175 L95.0927697,0.51175 L95.0927697,22.4772727 L99.0059951,22.4772727 L99.0059951,15.4627955 L100.945885,13.2234318 L108.437872,22.4772727 L113.254149,22.4772727 Z M137.714064,22.4772727 L137.714064,0.51175 L132.195413,0.51175 L126.108173,14.9688182 L120.05438,0.51175 L114.535729,0.51175 L114.535729,22.4772727 L118.448954,22.4772727 L118.448954,6.17602273 L125.272014,22.4772727 L126.944333,22.4772727 L133.800839,6.17602273 L133.800839,22.4772727 L137.714064,22.4772727 Z M161.204034,22.4772727 L152.441085,0.51175 L147.557915,0.51175 L138.794966,22.4772727 L143.243333,22.4772727 L144.882205,18.262 L155.116795,18.262 L156.755667,22.4772727 L161.204034,22.4772727 Z M154.013065,14.8700227 L145.985936,14.8700227 L149.9995,4.39770455 L154.013065,14.8700227 Z M180.479762,22.4772727 L170.746868,10.8852727 L179.810834,0.51175 L174.961111,0.51175 L166.231608,10.9840682 L166.231608,0.51175 L162.318383,0.51175 L162.318383,22.4772727 L166.231608,22.4772727 L166.231608,15.4627955 L168.171497,13.2234318 L175.663484,22.4772727 L180.479762,22.4772727 Z M197.046333,22.4772727 L197.046333,19.0852955 L185.674567,19.0852955 L185.674567,12.9929091 L196.812209,12.9929091 L196.812209,9.60093182 L185.674567,9.60093182 L185.674567,3.90372727 L197.046333,3.90372727 L197.046333,0.51175 L181.761342,0.51175 L181.761342,22.4772727 L197.046333,22.4772727 Z M216.990988,22.4772727 L211.53923,13.8491364 C214.21494,13.4210227 216.823756,11.3133864 216.823756,7.3945 C216.823756,3.34388636 213.947369,0.51175 209.532448,0.51175 L199.732661,0.51175 L199.732661,22.4772727 L203.645886,22.4772727 L203.645886,14.27725 L207.525665,14.27725 L212.475728,22.4772727 L216.990988,22.4772727 Z M208.997306,10.8852727 L203.645886,10.8852727 L203.645886,3.90372727 L208.997306,3.90372727 C211.204766,3.90372727 212.810192,5.28686364 212.810192,7.3945 C212.810192,9.50213636 211.204766,10.8852727 208.997306,10.8852727 Z M227.035517,22.8724545 C233.055864,22.8724545 235.664681,19.7439318 235.664681,16.0885 C235.664681,7.88847727 222.687489,10.4242273 222.687489,6.34068182 C222.687489,4.69409091 224.15913,3.60734091 226.466929,3.60734091 C228.808175,3.60734091 231.182867,4.39770455 232.922079,6.11015909 L235.162986,3.24509091 C233.089311,1.26918182 230.279815,0.182431818 226.801393,0.182431818 C221.918223,0.182431818 218.673925,2.98163636 218.673925,6.60413636 C218.673925,14.7053636 231.684563,11.8402955 231.684563,16.45075 C231.684563,17.89975 230.413601,19.4475455 227.202749,19.4475455 C224.092237,19.4475455 221.684098,18.0314773 220.145565,16.4178182 L217.971551,19.3816818 C219.944887,21.4563864 222.921614,22.8724545 227.035517,22.8724545 Z" id="path-1"></path>
    </defs>
    <g id="Page-1" stroke="none" stroke-width="1" fill="none" fill-rule="evenodd">
        <g id="Desktop-HD" transform="translate(-110.000000, -44.000000)">
            <g id="Header">
                <g id="Navigation" transform="translate(110.000000, 40.000000)">
                    <g id="Logo" transform="translate(0.000000, 4.000000)">
                        <g id="Group-8" transform="translate(0.000000, 1.000000)" fill="#009BDF">
                            <rect id="Rectangle-11" x="0" y="0" width="14" height="6"></rect>
                            <rect id="Rectangle-12" x="5" y="8" width="14" height="6"></rect>
                            <rect id="Rectangle-13" x="0" y="16" width="14" height="6"></rect>
                        </g>
                        <mask id="mask-2" fill="white">
                            <use xlink:href="#path-1"></use>
                        </mask>
                        <use id="Clip-5" fill="#000000" xlink:href="#path-1"></use>
                    </g>
                </g>
            </g>
        </g>
    </g>
</svg>